<?xml version="1.0" encoding="utf-8"?>
<!-- Generator: Adobe Illustrator 24.1.2, SVG Export Plug-In . SVG Version: 6.00 Build 0)  -->
<svg version="1.1" id="Layer_1" xmlns="http://www.w3.org/2000/svg" xmlns:xlink="http://www.w3.org/1999/xlink" x="0px" y="0px"
	 viewBox="0 0 512 512" style="enable-background:new 0 0 512 512;" xml:space="preserve">
<style type="text/css">
	.st0{fill:#9CCC65;}
	.st1{fill:#83BD46;}
	.st2{fill:#71AD3D;}
	.st3{fill:#B2EBF2;}
	.st4{fill:#80DEEA;}
	.st5{fill:#E4D72B;}
	.st6{fill:#FEFEFE;}
	.st7{fill:#E4D629;}
	.st8{fill:#C9B824;}
	.st9{fill:#6C872F;}
	.st10{fill:#859E3E;}
	.st11{fill:#6D872F;}
	.st12{fill:#755E35;}
	.st13{fill:#609B16;}
	.st14{fill:#F1DC5E;}
	.st15{fill:#517C01;}
	.st16{fill:#537D01;}
	.st17{fill:#507B01;}
</style>
<path class="st0" d="M251.8,508.8L3.8,356.2c-3.8-2.3-4.9-7.2-2.6-11c0.7-1.2,1.8-2.2,3-2.9l248-133.4c2.4-1.3,5.2-1.3,7.6,0
	l248,133.4c3.9,2.1,5.3,6.9,3.3,10.8c-0.7,1.2-1.7,2.3-2.9,3l-248,152.6C257.6,510.4,254.4,510.4,251.8,508.8L251.8,508.8z"/>
<path class="st1" d="M507.8,342.3l-116-62.4c-66.7,83-169.1,136-283.8,136c-2.4,0-4.8,0-7.1-0.1l151,92.9c2.6,1.6,5.8,1.6,8.4,0
	l248-152.6c3.8-2.3,4.9-7.2,2.6-11C510.1,344,509,343,507.8,342.3L507.8,342.3z"/>
<path class="st2" d="M409.7,364.3l-17.9-9.6l18.3-11.2c3.8-2.3,5-7.2,2.7-11s-7.2-5-11-2.7c0,0-0.1,0.1-0.1,0.1l-26.2,16.1
	l-102.7-55.2l17-9.1c3.9-2.1,5.3-7,3.2-10.9c-2.1-3.8-6.9-5.3-10.7-3.2L256,281.6l-26.3-14.1c-3.9-2.1-8.7-0.6-10.8,3.3
	c-2.1,3.9-0.6,8.7,3.2,10.8l17,9.1l-37.5,20.2l-21.8-13.4c-3.8-2.3-8.7-1.2-11,2.6c-2.3,3.8-1.2,8.7,2.6,11c0,0,0,0,0.1,0l13.9,8.5
	l-48.9,26.3l-20.2-12.4c-3.8-2.3-8.7-1.1-11,2.6c-2.3,3.8-1.1,8.7,2.6,11l12.9,7.9c-2.8,3.4-2.3,8.5,1.2,11.3c2.5,2,6,2.4,8.8,0.8
	l5.2-2.8c50,30.7,82.9,51,104.8,64.5l-19,11.7c-3.8,2.3-4.9,7.2-2.6,11c2.3,3.8,7.2,4.9,11,2.6l25.8-15.9
	c29.9,18.5,27.7,17.1,30.1,17.1c8,0,11.1-10.6,4.2-14.8l-19-11.7l45.8-28.2l22.4,13.8c3.8,2.3,8.7,1.1,11-2.6s1.1-8.7-2.6-11l0,0
	l-15.5-9.5l43.8-26.9l26,14c3.9,2.1,8.7,0.6,10.8-3.3C415,371.2,413.6,366.4,409.7,364.3L409.7,364.3z M256,419.5l-103.8-63.9
	l48.9-26.3l100.7,62L256,419.5z M317.1,381.9l-99.7-61.4l38.6-20.8l103.8,55.8L317.1,381.9z"/>
<path class="st3" d="M385.3,316.4c-4-6-97.3-146.9-97.3-205.5C288,49.8,334.7,0,392,0s104,49.8,104,111
	c0,58.6-93.4,199.5-97.3,205.5c-2.4,3.7-7.4,4.7-11.1,2.2C386.7,318.1,385.9,317.3,385.3,316.4z"/>
<circle class="st4" cx="392" cy="104" r="80"/>
<path class="st3" d="M113.3,380.4c-4-6-97.3-146.9-97.3-205.5c0-61.2,46.7-111,104-111s104,49.8,104,111
	c0,58.6-93.4,199.5-97.3,205.5c-2.4,3.7-7.4,4.7-11.1,2.2C114.7,382.1,113.9,381.3,113.3,380.4z"/>
<circle class="st4" cx="120" cy="168" r="80"/>
<g>
	<path class="st4" d="M71.3,312c21,36.7,40.3,65.8,42,68.5c2.4,3.7,7.4,4.7,11.1,2.2c0.9-0.6,1.6-1.3,2.2-2.2
		c3-4.5,55.8-84.2,82.4-148.7C180.1,280.5,128,310.8,71.3,312z"/>
	<path class="st4" d="M343.3,248c21,36.7,40.3,65.8,42,68.5c2.4,3.7,7.4,4.7,11.1,2.2c0.9-0.6,1.6-1.3,2.2-2.2
		c3-4.5,55.8-84.2,82.4-148.7C452.1,216.5,400,246.8,343.3,248L343.3,248z"/>
</g>
<g>
	<path class="st5" d="M392.7,32.4c0.8,0.3,1.5,0.1,2.3,0.1c9.7,0.3,19,2.5,27.8,6.6c7.3,3.4,13.9,7.9,19.7,13.6
		c10.4,10.2,17.2,22.5,20.2,36.8c1.3,6.3,1.7,12.6,1.3,18.9c-1,16.1-6.8,30.4-17.4,42.6c-10.7,12.3-24,20-39.9,23.3
		c-2.6,0.5-5.3,0.9-7.9,1.1c-0.1,0-0.3,0-0.4,0.1c-3.9,0-7.8,0-11.7,0c-0.1-0.2-0.3-0.1-0.4-0.1c-5.4-0.5-10.6-1.5-15.7-3.2
		c-12.1-4-22.5-10.7-31.1-20.2c-5.6-6.2-10-13.3-13.2-21c-2.8-6.8-4.4-13.9-5-21.3c-0.1-0.7,0-1.5-0.2-2.2c0-2.1,0-4.1,0-6.2
		c0.2-0.1,0.1-0.3,0.1-0.5c0-2.1,0.2-4.1,0.5-6.2c0.6-4.1,1.4-8.1,2.7-12c1.7-5.4,4-10.5,6.9-15.4c2.6-4.5,5.8-8.5,9.3-12.3
		c2.5-2.7,5.2-5.1,8.1-7.4c4.9-3.8,10.2-6.9,15.9-9.4c4.4-1.9,8.9-3.3,13.6-4.3c4.1-0.8,8.2-1.3,12.3-1.5c0.7,0,1.4,0.2,2.1-0.1
		C392.5,32.4,392.6,32.4,392.7,32.4z M392.6,171.2c36.4,0.1,66.5-29.3,67-66.2c0.5-37.5-29.4-67.4-65.8-68
		c-38-0.6-68.1,30-68.3,66.7C325.4,141.3,355.9,171.3,392.6,171.2z"/>
	<path class="st6" d="M390.3,32.5c0,0,0-0.1,0-0.1c0.7,0,1.4,0,2.1,0C391.7,32.7,391,32.5,390.3,32.5z"/>
	<path class="st7" d="M412.3,158.4c-5.2,1.8-10.4,2.4-15.8,1.3c-1.4-0.3-2.9-0.5-4.3-0.8c-1.7-0.3-3.2,0.1-4.8,0.5
		c-5.8,1.2-11.5,0.7-16.9-1.6c-6.2-2.7-9.8-7.6-11.4-14c-1.2-4.8-0.7-9.5,0.5-14.2c1.6-6.3,4.5-11.9,7.9-17.3
		c3.1-5,5.7-10.2,7.4-15.9c1.1-3.6,1.7-7.4,2.6-11c0.5-1.9,1.1-3.8,2-5.6c1.7-3.4,4.5-5.3,8.2-5.9c1.1-0.2,2.2-0.3,3.3-0.4
		c0.4,0,0.8,0,1.2-0.1c0.9,0.1,1.7,0.1,2.6,0.3c0.2,0.2,0.4,0.1,0.6,0.1c0,0,0,0,0,0c0.1,0.2,0.3,0.2,0.5,0.3c1.4,0.4,2.7,1,3.9,1.9
		c1.3,0.9,2.5,2,3.1,3.5c1.2,2.9,1.8,5.9,2.5,9c0.6,2.9,1.3,5.8,2.2,8.7c1.9,6.4,5.2,12.1,8.4,17.8c1.3,2.2,2.5,4.5,3.5,6.9
		c1.5,3.7,2.6,7.5,3.1,11.5c0.3,2.6,0.5,5.1,0.3,7.7c-0.2,2.8-0.7,5.5-1.7,8.1c-0.9,2.3-2.1,4.4-3.9,6.2c-1.1,1.1-2.4,2.1-3.8,2.8
		c-0.2,0.1-0.5,0.2-0.6,0.5c0,0,0,0,0,0C412.6,158.3,412.4,158.3,412.3,158.4z M367,151.8C367,151.9,367,151.9,367,151.8
		C367,151.9,367,151.9,367,151.8c-0.1-0.6-0.6-0.9-0.9-1.4c-2.1-3.2-2.5-6.8-2.5-10.5c0-1.4,0.2-2.8,0.4-4.2
		c0.4-2.8,0.9-5.5,1.7-8.1c1.1-3.7,2.8-7.2,4.4-10.7c1.7-3.4,3.4-6.8,5-10.3c1.3-3,2.6-6.1,3.4-9.3c1-3.7,1.3-7.5,1.8-11.3
		c0.6-3.9,2.6-7.1,5.6-9.6c0.8-0.7,1.7-1.2,2.6-1.8c-0.9,0-1.6,0.3-2.4,0.6c-3.1,1-5.1,3.1-6.1,6.2c-1.3,3.9-1.9,7.9-2.8,11.9
		c-1,4.5-2.5,8.8-4.6,12.9c-1.7,3.3-3.7,6.5-5.8,9.5c-1.6,2.3-3.2,4.7-4.2,7.3c-1.1,2.7-1.8,5.5-2.2,8.4c-0.5,3.3-0.3,6.6,0.4,9.9
		c0.7,3.2,2.2,6,4.3,8.5C365.6,150.6,366,151.5,367,151.8z M402.7,130.4c0,2,0,4.1,0,6.1c0,0.3,0,0.6-0.3,0.8
		c-1.9,1.3-3.9,2-6.1,2.4c-1.4,0.1-2.8,0.2-4.3,0c-3.3-0.4-6-2-7.9-4.7c-2.4-3.4-2.9-7.3-2.1-11.3c1.2-5.9,6.5-11,14.1-9.5
		c2.6,0.5,5,1.6,7,3.3c0.4,0.3,0.5,0.2,0.8-0.1c1.1-1.3,2.1-2.6,3.2-3.8c0.4-0.5,0.3-0.8-0.2-1.1c-2.7-2.1-5.7-3.5-9.1-4
		c-0.5-0.1-0.6-0.3-0.6-0.7c0-1.6,0-3.3,0-4.9c0-0.6-0.2-0.8-0.7-0.7c-0.5,0-1,0-1.6,0c-0.2,0-0.4,0-0.6,0c-0.6-0.1-0.8,0.1-0.8,0.8
		c0.1,1.5,0,3,0,4.4c0,0.3,0.1,0.6-0.1,0.8c-0.4,0-0.9,0-1.3,0c-0.6,0.1-0.8-0.1-0.8-0.7c0-1.6,0-3.2,0-4.8c0-0.3,0-0.7-0.5-0.6
		c-0.6,0-1.2-0.1-1.8,0.1c-0.1,0-0.2-0.1-0.3-0.1c-1.1,0-1.1,0-1.1,1c0,1.8,0,3.5,0,5.3c0,0.4-0.1,0.7-0.6,0.8
		c-2.5,0.8-4.6,2.2-6.5,4c-4.7,4.6-6.4,10.2-5.6,16.6c0.9,7.4,5,12.4,12.1,15c0.4,0.1,0.5,0.3,0.5,0.8c0,1.6,0,3.3,0,4.9
		c0,1.4,0,1.4,1.4,1.3c0.5,0,1.1,0,1.6,0c0.5,0,0.7-0.1,0.7-0.6c0-1.6,0-3.1,0-4.7c0-0.6,0-0.9,0.7-0.7c0.5,0.1,0.9,0,1.4,0
		c0,1.6,0,3.1,0,4.7c0,1.4,0,1.4,1.4,1.3c0.5,0,1,0,1.5,0c0.6,0.1,0.8-0.1,0.8-0.8c-0.1-1.6,0-3.1,0-4.7c0-0.6,0.2-0.8,0.8-0.9
		c3.9-0.7,7.4-2.4,10.5-4.9c0.2-0.2,0.4-0.4,0.4-0.7c0-4.8,0-9.5,0-14.3c0-0.4-0.1-0.5-0.5-0.5c-4.5,0-9,0-13.5,0
		c-0.2,0-0.4,0-0.6,0c-0.7-0.1-0.9,0.1-0.9,0.8c0.1,1.1,0,2.3,0,3.4c0,1.4,0,1.4,1.4,1.3c0.3,0,0.6,0,0.9,0
		C398,130.4,400.4,130.4,402.7,130.4z M388.9,74.6C388.9,74.6,388.9,74.5,388.9,74.6C388.9,74.5,388.8,74.5,388.9,74.6
		C388.8,74.6,388.8,74.6,388.9,74.6C388.9,74.6,388.9,74.6,388.9,74.6z"/>
	<path class="st8" d="M412.8,158.3c0.1-0.3,0.4-0.4,0.6-0.5c1.5-0.7,2.7-1.7,3.8-2.8c1.7-1.8,3-3.9,3.9-6.2c1-2.6,1.5-5.3,1.7-8.1
		c0.2-2.6,0-5.2-0.3-7.7c-0.5-4-1.6-7.8-3.1-11.5c-1-2.4-2.2-4.6-3.5-6.9c-3.2-5.7-6.5-11.4-8.4-17.8c-0.8-2.9-1.5-5.8-2.2-8.7
		c-0.7-3-1.3-6.1-2.5-9c-0.6-1.5-1.8-2.5-3.1-3.5c-1.2-0.9-2.5-1.5-3.9-1.9c-0.2,0-0.4,0-0.5-0.3c5,0.7,8.8,2.8,10.7,7.7
		c1.1,3,1.8,6.1,2.5,9.2c1.6,8.1,5,15.4,9.5,22.3c2.4,3.8,4.7,7.6,6.2,11.9c1.5,4.2,2.6,8.4,2.7,12.9c0.1,7.7-3,16.3-12.1,20.1
		C414.1,157.9,413.5,158.2,412.8,158.3z"/>
	<path class="st9" d="M411,49.6c-3.1,0.8-4.7,2.9-4.6,6.1c0.1,2.7-1.5,4.4-3.4,5.8c-1,0.7-2.2,1-3.4,1.2c-2,0.4-4,0.7-6.1,0.9
		c0.2-1.5,0.9-2.8,1.6-4c1.4-2.6,3.2-4.9,5.6-6.6c2-1.4,3.9-2.9,6.3-3.5C408.3,49.2,409.7,49.1,411,49.6z"/>
	<path class="st10" d="M411,49.6c-1.3-0.5-2.7-0.4-4,0c-2.4,0.6-4.3,2.1-6.3,3.5c-2.4,1.7-4.3,4-5.6,6.6c-0.7,1.3-1.3,2.6-1.6,4
		c-0.2,0.1-0.4,0-0.4-0.3c-0.6-4.5-0.1-8.8,3.2-12.2c2.6-2.6,5.8-3.6,9.4-3.3c1.2,0.1,2.4,0.3,3.6,0.7c0.7,0.2,1.4,0.5,2,0.8
		C411.3,49.7,411.2,49.6,411,49.6z"/>
	<path class="st11" d="M389.7,64.5c-1.9-0.2-3.8-0.4-5.7-1c-2.1-0.7-3.5-2.7-3.5-4.9c0-2-1.2-3.5-3.3-4.1c-0.1,0-0.1-0.1-0.2-0.1
		c0.1,0,0.1-0.1,0.2-0.1c0.9,0,1.8-0.2,2.7,0.1c3,1,5.5,2.8,7.4,5.3C388.5,61.1,389.3,62.7,389.7,64.5z"/>
	<path class="st10" d="M389.7,64.5c-0.4-1.7-1.2-3.3-2.3-4.8c-1.9-2.5-4.4-4.3-7.4-5.3c-0.9-0.3-1.8-0.1-2.7-0.1
		c5.7-2.8,12.6-0.1,12.9,7.3c0,0.8,0.1,1.7-0.1,2.5C390,64.3,390,64.5,389.7,64.5z"/>
	<path class="st12" d="M392.2,73.2c-0.4,0.2-0.8,0.1-1.2,0.1c0.3-1.8,0.8-3.5,0.9-5.3c0.1-1.4-0.1-2.8-0.8-4
		c-0.2-0.4-0.3-0.7,0.2-0.9c0.5-0.3,0.7,0.1,0.9,0.4c1,2,1,4,0.7,6.2C392.6,70.9,392.4,72,392.2,73.2z"/>
	<path class="st8" d="M395.3,73.6c-0.2,0-0.4,0.1-0.6-0.1C394.9,73.5,395.1,73.5,395.3,73.6z"/>
	<path class="st8" d="M412.3,158.4c0.1-0.2,0.3-0.2,0.4-0.2C412.7,158.5,412.5,158.4,412.3,158.4z"/>
	<path class="st13" d="M395,102.1c0.5,0,1.1,0,1.6,0c0.6,0,0.7,0.1,0.7,0.7c0,1.6,0,3.3,0,4.9c0,0.5,0.1,0.6,0.6,0.7
		c3.4,0.6,6.4,2,9.1,4c0.5,0.4,0.6,0.6,0.2,1.1c-1.1,1.3-2.2,2.5-3.2,3.8c-0.3,0.3-0.4,0.4-0.8,0.1c-2.1-1.7-4.4-2.8-7-3.3
		c-7.6-1.5-12.9,3.6-14.1,9.5c-0.8,4-0.3,7.8,2.1,11.3c1.9,2.7,4.6,4.3,7.9,4.7c1.4,0.2,2.8,0.1,4.3,0c0.2,0.2,0.5,0.1,0.7,0.1
		c2.4-0.3,4.6-1,6.6-2.3c0.4-0.3,0.6-0.6,0.5-1.1c0-1.5,0-3.1,0-4.6c0-1.4,0-1.4-1.5-1.4c-2.3,0-4.7,0-7,0c-0.3,0-0.6,0-0.9,0
		c0-1.8,0-3.7,0-5.5c4.5,0,9,0,13.5,0c0.4,0,0.5,0.1,0.5,0.5c0,4.8,0,9.5,0,14.3c0,0.3-0.1,0.5-0.4,0.7c-3.1,2.5-6.5,4.3-10.5,4.9
		c-0.6,0.1-0.8,0.3-0.8,0.9c0.1,1.6,0,3.1,0,4.7c0,0.7-0.2,0.8-0.8,0.8c-0.5-0.1-1,0-1.5,0c0-1.5,0-3.1,0-4.6c0-1.4,0-1.4-1.4-1.4
		c-0.5,0-1,0.1-1.4,0c-0.7-0.2-0.8,0.2-0.7,0.7c0,1.6,0,3.1,0,4.7c0,0.5-0.2,0.7-0.7,0.6c-0.5,0-1.1,0-1.6,0c0-2.1,0-4.1,0-6.2
		c0-0.4,0-0.6-0.4-0.8c-3-0.9-5.5-2.6-7.6-4.8c-1.7-1.8-2.9-3.8-3.7-6.1c-1.1-3.1-1.2-6.3-0.9-9.5c0.4-3.8,1.9-7.1,4.4-10
		c2.1-2.4,4.7-4.1,7.7-5.2c0.4-0.1,0.6-0.3,0.6-0.7c0-2.1,0-4.2,0-6.3c0.6-0.2,1.2,0,1.8-0.1c0.5,0,0.5,0.3,0.5,0.6
		c0,1.6,0,3.2,0,4.8c0,0.6,0.2,0.8,0.8,0.7c0.4,0,0.9,0,1.3,0c0.2,0,0.5,0,0.7,0c0.7,0.1,0.9-0.2,0.9-0.9
		C395,105.6,395,103.9,395,102.1z"/>
	<path class="st14" d="M367,151.8c-0.9-0.4-1.4-1.2-1.9-1.9c-2.1-2.5-3.6-5.3-4.3-8.5c-0.7-3.3-0.8-6.6-0.4-9.9
		c0.4-2.9,1.2-5.7,2.2-8.4c1-2.6,2.6-5,4.2-7.3c2.1-3.1,4.1-6.2,5.8-9.5c2.1-4.1,3.5-8.4,4.6-12.9c0.9-4,1.5-8,2.8-11.9
		c1-3.1,3-5.2,6.1-6.2c0.8-0.3,1.5-0.6,2.4-0.6c-0.9,0.6-1.8,1.1-2.6,1.8c-3.1,2.5-5,5.6-5.6,9.6c-0.6,3.8-0.9,7.6-1.8,11.3
		c-0.8,3.2-2.1,6.3-3.4,9.3c-1.5,3.5-3.3,6.9-5,10.3c-1.7,3.5-3.3,7-4.4,10.7c-0.8,2.7-1.3,5.4-1.7,8.1c-0.2,1.4-0.3,2.8-0.4,4.2
		c0,3.7,0.4,7.3,2.5,10.5C366.4,150.9,366.8,151.3,367,151.8L367,151.8z"/>
	<path class="st15" d="M389.1,102.1c0,2.1,0,4.2,0,6.3c0,0.5-0.2,0.6-0.6,0.7c-3,1.1-5.6,2.8-7.7,5.2c-2.5,2.9-4,6.2-4.4,10
		c-0.3,3.2-0.2,6.4,0.9,9.5c0.8,2.3,2,4.3,3.7,6.1c2.1,2.3,4.6,3.9,7.6,4.8c0.4,0.1,0.4,0.4,0.4,0.8c0,2.1,0,4.1,0,6.2
		c-1.4,0.1-1.4,0.1-1.4-1.3c0-1.6,0-3.3,0-4.9c0-0.4-0.1-0.6-0.5-0.8c-7-2.6-11.1-7.5-12.1-15c-0.8-6.4,0.9-12,5.6-16.6
		c1.9-1.8,4-3.1,6.5-4c0.5-0.2,0.6-0.4,0.6-0.8c0-1.8,0-3.5,0-5.3c0-1,0-1.1,1.1-1C388.9,102,389,102.1,389.1,102.1z"/>
	<path class="st15" d="M402.7,130.4c1.5,0,1.5,0,1.5,1.4c0,1.5,0,3.1,0,4.6c0,0.5-0.1,0.8-0.5,1.1c-2,1.4-4.3,2-6.6,2.3
		c-0.2,0-0.5,0.1-0.7-0.1c2.2-0.3,4.2-1.1,6.1-2.4c0.3-0.2,0.3-0.5,0.3-0.8C402.7,134.5,402.7,132.4,402.7,130.4z"/>
	<path class="st16" d="M395,102.1c0,1.7,0,3.5,0,5.2c0,0.7-0.2,1-0.9,0.9c-0.2,0-0.5,0-0.7,0c0.2-0.2,0.1-0.5,0.1-0.8
		c0-1.5,0-3,0-4.4c0-0.6,0.2-0.9,0.8-0.8C394.6,102.2,394.8,102.1,395,102.1z"/>
	<path class="st17" d="M393.6,145.7c1.4,0,1.4,0,1.4,1.4c0,1.5,0,3.1,0,4.6c-1.4,0.1-1.4,0.1-1.4-1.3
		C393.6,148.8,393.6,147.2,393.6,145.7z"/>
	<path class="st17" d="M394.9,124.8c0,1.8,0,3.7,0,5.5c-1.4,0.1-1.4,0.1-1.4-1.3c0-1.1,0.1-2.3,0-3.4c0-0.7,0.2-0.9,0.9-0.8
		C394.5,124.8,394.7,124.8,394.9,124.8z"/>
	<path class="st14" d="M388.9,74.6C388.9,74.6,388.9,74.6,388.9,74.6C388.8,74.6,388.8,74.6,388.9,74.6
		C388.8,74.5,388.9,74.5,388.9,74.6C388.9,74.5,388.9,74.6,388.9,74.6z"/>
	<path class="st14" d="M367,151.8C367,151.9,367,151.9,367,151.8C367,151.9,367,151.9,367,151.8C367,151.8,367,151.8,367,151.8z"/>
</g>
<g>
	<path class="st5" d="M120.1,95.2c0.8,0.3,1.5,0.1,2.3,0.1c9.7,0.3,19,2.5,27.8,6.6c7.3,3.4,13.9,7.9,19.7,13.6
		c10.4,10.2,17.2,22.5,20.2,36.8c1.3,6.3,1.7,12.6,1.3,18.9c-1,16.1-6.8,30.4-17.4,42.6c-10.7,12.3-24,20-39.9,23.3
		c-2.6,0.5-5.3,0.9-7.9,1.1c-0.1,0-0.3,0-0.4,0.1c-3.9,0-7.8,0-11.7,0c-0.1-0.2-0.3-0.1-0.4-0.1c-5.4-0.5-10.6-1.5-15.7-3.2
		c-12.1-4-22.5-10.7-31.1-20.2c-5.6-6.2-10-13.3-13.2-21c-2.8-6.8-4.4-13.9-5-21.3c-0.1-0.7,0-1.5-0.2-2.2c0-2.1,0-4.1,0-6.2
		c0.2-0.1,0.1-0.3,0.1-0.5c0-2.1,0.2-4.1,0.5-6.2c0.6-4.1,1.4-8.1,2.7-12c1.7-5.4,4-10.5,6.9-15.4c2.6-4.5,5.8-8.5,9.3-12.3
		c2.5-2.7,5.2-5.1,8.1-7.4c4.9-3.8,10.2-6.9,15.9-9.4c4.4-1.9,8.9-3.3,13.6-4.3c4.1-0.8,8.2-1.3,12.3-1.5c0.7,0,1.4,0.2,2.1-0.1
		C119.9,95.2,120,95.2,120.1,95.2z M120,234c36.4,0.1,66.5-29.3,67-66.2c0.5-37.5-29.4-67.4-65.8-68c-38-0.6-68.1,30-68.3,66.7
		C52.8,204.1,83.3,234.1,120,234z"/>
	<path class="st6" d="M117.7,95.3c0,0,0-0.1,0-0.1c0.7,0,1.4,0,2.1,0C119.1,95.5,118.4,95.3,117.7,95.3z"/>
	<path class="st7" d="M139.7,221.2c-5.2,1.8-10.4,2.4-15.8,1.3c-1.4-0.3-2.9-0.5-4.3-0.8c-1.7-0.3-3.2,0.1-4.8,0.5
		c-5.8,1.2-11.5,0.7-16.9-1.6c-6.2-2.7-9.8-7.6-11.4-14c-1.2-4.8-0.7-9.5,0.5-14.2c1.6-6.3,4.5-11.9,7.9-17.3
		c3.1-5,5.7-10.2,7.4-15.9c1.1-3.6,1.7-7.4,2.6-11c0.5-1.9,1.1-3.8,2-5.6c1.7-3.4,4.5-5.3,8.2-5.9c1.1-0.2,2.2-0.3,3.3-0.4
		c0.4,0,0.8,0,1.2-0.1c0.9,0.1,1.7,0.1,2.6,0.3c0.2,0.2,0.4,0.1,0.6,0.1c0,0,0,0,0,0c0.1,0.2,0.3,0.2,0.5,0.3c1.4,0.4,2.7,1,3.9,1.9
		c1.3,0.9,2.5,2,3.1,3.5c1.2,2.9,1.8,5.9,2.5,9c0.6,2.9,1.3,5.8,2.2,8.7c1.9,6.4,5.2,12.1,8.4,17.8c1.3,2.2,2.5,4.5,3.5,6.9
		c1.5,3.7,2.6,7.5,3.1,11.5c0.3,2.6,0.5,5.1,0.3,7.7c-0.2,2.8-0.7,5.5-1.7,8.1c-0.9,2.3-2.1,4.4-3.9,6.2c-1.1,1.1-2.4,2.1-3.8,2.8
		c-0.2,0.1-0.5,0.2-0.6,0.5c0,0,0,0,0,0C140,221.1,139.8,221.1,139.7,221.2z M94.3,214.6C94.4,214.7,94.4,214.7,94.3,214.6
		C94.4,214.7,94.4,214.7,94.3,214.6c-0.1-0.6-0.6-0.9-0.9-1.4c-2.1-3.2-2.5-6.8-2.5-10.5c0-1.4,0.2-2.8,0.4-4.2
		c0.4-2.8,0.9-5.5,1.7-8.1c1.1-3.7,2.8-7.2,4.4-10.7c1.7-3.4,3.4-6.8,5-10.3c1.3-3,2.6-6.1,3.4-9.3c1-3.7,1.3-7.5,1.8-11.3
		c0.6-3.9,2.6-7.1,5.6-9.6c0.8-0.7,1.7-1.2,2.6-1.8c-0.9,0-1.6,0.3-2.4,0.6c-3.1,1-5.1,3.1-6.1,6.2c-1.3,3.9-1.9,7.9-2.8,11.9
		c-1,4.5-2.5,8.8-4.6,12.9c-1.7,3.3-3.7,6.5-5.8,9.5c-1.6,2.3-3.2,4.7-4.2,7.3c-1.1,2.7-1.8,5.5-2.2,8.4c-0.5,3.3-0.3,6.6,0.4,9.9
		c0.7,3.2,2.2,6,4.3,8.5C93,213.4,93.4,214.3,94.3,214.6z M130.1,193.2c0,2,0,4.1,0,6.1c0,0.3,0,0.6-0.3,0.8c-1.9,1.3-3.9,2-6.1,2.4
		c-1.4,0.1-2.8,0.2-4.3,0c-3.3-0.4-6-2-7.9-4.7c-2.4-3.4-2.9-7.3-2.1-11.3c1.2-5.9,6.5-11,14.1-9.5c2.6,0.5,5,1.6,7,3.3
		c0.4,0.3,0.5,0.2,0.8-0.1c1.1-1.3,2.1-2.6,3.2-3.8c0.4-0.5,0.3-0.8-0.2-1.1c-2.7-2.1-5.7-3.5-9.1-4c-0.5-0.1-0.6-0.3-0.6-0.7
		c0-1.6,0-3.3,0-4.9c0-0.6-0.2-0.8-0.7-0.7c-0.5,0-1,0-1.6,0c-0.2,0-0.4,0-0.6,0c-0.6-0.1-0.8,0.1-0.8,0.8c0.1,1.5,0,3,0,4.4
		c0,0.3,0.1,0.6-0.1,0.8c-0.4,0-0.9,0-1.3,0c-0.6,0.1-0.8-0.1-0.8-0.7c0-1.6,0-3.2,0-4.8c0-0.3,0-0.7-0.5-0.6
		c-0.6,0-1.2-0.1-1.8,0.1c-0.1,0-0.2-0.1-0.3-0.1c-1.1,0-1.1,0-1.1,1c0,1.8,0,3.5,0,5.3c0,0.4-0.1,0.7-0.6,0.8
		c-2.5,0.8-4.6,2.2-6.5,4c-4.7,4.6-6.4,10.2-5.6,16.6c0.9,7.4,5,12.4,12.1,15c0.4,0.1,0.5,0.3,0.5,0.8c0,1.6,0,3.3,0,4.9
		c0,1.4,0,1.4,1.4,1.3c0.5,0,1.1,0,1.6,0c0.5,0,0.7-0.1,0.7-0.6c0-1.6,0-3.1,0-4.7c0-0.6,0-0.9,0.7-0.7c0.5,0.1,0.9,0,1.4,0
		c0,1.6,0,3.1,0,4.7c0,1.4,0,1.4,1.4,1.3c0.5,0,1,0,1.5,0c0.6,0.1,0.8-0.1,0.8-0.8c-0.1-1.6,0-3.1,0-4.7c0-0.6,0.2-0.8,0.8-0.9
		c3.9-0.7,7.4-2.4,10.5-4.9c0.2-0.2,0.4-0.4,0.4-0.7c0-4.8,0-9.5,0-14.3c0-0.4-0.1-0.5-0.5-0.5c-4.5,0-9,0-13.5,0
		c-0.2,0-0.4,0-0.6,0c-0.7-0.1-0.9,0.1-0.9,0.8c0.1,1.1,0,2.3,0,3.4c0,1.4,0,1.4,1.4,1.3c0.3,0,0.6,0,0.9,0
		C125.4,193.1,127.8,193.2,130.1,193.2z M116.3,137.4C116.3,137.4,116.3,137.3,116.3,137.4C116.2,137.3,116.2,137.3,116.3,137.4
		C116.2,137.4,116.2,137.4,116.3,137.4C116.3,137.4,116.3,137.4,116.3,137.4z"/>
	<path class="st8" d="M140.1,221.1c0.1-0.3,0.4-0.4,0.6-0.5c1.5-0.7,2.7-1.7,3.8-2.8c1.7-1.8,3-3.9,3.9-6.2c1-2.6,1.5-5.3,1.7-8.1
		c0.2-2.6,0-5.2-0.3-7.7c-0.5-4-1.6-7.8-3.1-11.5c-1-2.4-2.2-4.6-3.5-6.9c-3.2-5.7-6.5-11.4-8.4-17.8c-0.8-2.9-1.5-5.8-2.2-8.7
		c-0.7-3-1.3-6.1-2.5-9c-0.6-1.5-1.8-2.5-3.1-3.5c-1.2-0.9-2.5-1.5-3.9-1.9c-0.2,0-0.4,0-0.5-0.3c5,0.7,8.8,2.8,10.7,7.7
		c1.1,3,1.8,6.1,2.5,9.2c1.6,8.1,5,15.4,9.5,22.3c2.4,3.8,4.7,7.6,6.2,11.9c1.5,4.2,2.6,8.4,2.7,12.9c0.1,7.7-3,16.3-12.1,20.1
		C141.5,220.7,140.9,221,140.1,221.1z"/>
	<path class="st9" d="M138.4,112.4c-3.1,0.8-4.7,2.9-4.6,6.1c0.1,2.7-1.5,4.4-3.4,5.8c-1,0.7-2.2,1-3.4,1.2c-2,0.4-4,0.7-6.1,0.9
		c0.2-1.5,0.9-2.8,1.6-4c1.4-2.6,3.2-4.9,5.6-6.6c2-1.4,3.9-2.9,6.3-3.5C135.7,112,137.1,111.9,138.4,112.4z"/>
	<path class="st10" d="M138.4,112.4c-1.3-0.5-2.7-0.4-4,0c-2.4,0.6-4.3,2.1-6.3,3.5c-2.4,1.7-4.3,4-5.6,6.6c-0.7,1.3-1.3,2.6-1.6,4
		c-0.2,0.1-0.4,0-0.4-0.3c-0.6-4.5-0.1-8.8,3.2-12.2c2.6-2.6,5.8-3.6,9.4-3.3c1.2,0.1,2.4,0.3,3.6,0.7c0.7,0.2,1.4,0.5,2,0.8
		C138.7,112.5,138.6,112.4,138.4,112.4z"/>
	<path class="st11" d="M117.1,127.3c-1.9-0.2-3.8-0.4-5.7-1c-2.1-0.7-3.5-2.7-3.5-4.9c0-2-1.2-3.5-3.3-4.1c-0.1,0-0.1-0.1-0.2-0.1
		c0.1,0,0.1-0.1,0.2-0.1c0.9,0,1.8-0.2,2.7,0.1c3,1,5.5,2.8,7.4,5.3C115.9,123.9,116.6,125.5,117.1,127.3z"/>
	<path class="st10" d="M117.1,127.3c-0.4-1.7-1.2-3.3-2.3-4.8c-1.9-2.5-4.4-4.3-7.4-5.3c-0.9-0.3-1.8-0.1-2.7-0.1
		c5.7-2.8,12.6-0.1,12.9,7.3c0,0.8,0.1,1.7-0.1,2.5C117.4,127.1,117.4,127.3,117.1,127.3z"/>
	<path class="st12" d="M119.5,136c-0.4,0.2-0.8,0.1-1.2,0.1c0.3-1.8,0.8-3.5,0.9-5.3c0.1-1.4-0.1-2.8-0.8-4
		c-0.2-0.4-0.3-0.7,0.2-0.9c0.5-0.3,0.7,0.1,0.9,0.4c1,2,1,4,0.7,6.2C120,133.7,119.8,134.8,119.5,136z"/>
	<path class="st8" d="M122.7,136.4c-0.2,0-0.4,0.1-0.6-0.1C122.3,136.3,122.5,136.3,122.7,136.4z"/>
	<path class="st8" d="M139.7,221.2c0.1-0.2,0.3-0.2,0.4-0.2C140,221.3,139.9,221.2,139.7,221.2z"/>
	<path class="st13" d="M122.4,164.9c0.5,0,1.1,0,1.6,0c0.6,0,0.7,0.1,0.7,0.7c0,1.6,0,3.3,0,4.9c0,0.5,0.1,0.6,0.6,0.7
		c3.4,0.6,6.4,2,9.1,4c0.5,0.4,0.6,0.6,0.2,1.1c-1.1,1.3-2.2,2.5-3.2,3.8c-0.3,0.3-0.4,0.4-0.8,0.1c-2.1-1.7-4.4-2.8-7-3.3
		c-7.6-1.5-12.9,3.6-14.1,9.5c-0.8,4-0.3,7.8,2.1,11.3c1.9,2.7,4.6,4.3,7.9,4.7c1.4,0.2,2.8,0.1,4.3,0c0.2,0.2,0.5,0.1,0.7,0.1
		c2.4-0.3,4.6-1,6.6-2.3c0.4-0.3,0.6-0.6,0.5-1.1c0-1.5,0-3.1,0-4.6c0-1.4,0-1.4-1.5-1.4c-2.3,0-4.7,0-7,0c-0.3,0-0.6,0-0.9,0
		c0-1.8,0-3.7,0-5.5c4.5,0,9,0,13.5,0c0.4,0,0.5,0.1,0.5,0.5c0,4.8,0,9.5,0,14.3c0,0.3-0.1,0.5-0.4,0.7c-3.1,2.5-6.5,4.3-10.5,4.9
		c-0.6,0.1-0.8,0.3-0.8,0.9c0.1,1.6,0,3.1,0,4.7c0,0.7-0.2,0.8-0.8,0.8c-0.5-0.1-1,0-1.5,0c0-1.5,0-3.1,0-4.6c0-1.4,0-1.4-1.4-1.4
		c-0.5,0-1,0.1-1.4,0c-0.7-0.2-0.8,0.2-0.7,0.7c0,1.6,0,3.1,0,4.7c0,0.5-0.2,0.7-0.7,0.6c-0.5,0-1.1,0-1.6,0c0-2.1,0-4.1,0-6.2
		c0-0.4,0-0.6-0.4-0.8c-3-0.9-5.5-2.6-7.6-4.8c-1.7-1.8-2.9-3.8-3.7-6.1c-1.1-3.1-1.2-6.3-0.9-9.5c0.4-3.8,1.9-7.1,4.4-10
		c2.1-2.4,4.7-4.1,7.7-5.2c0.4-0.1,0.6-0.3,0.6-0.7c0-2.1,0-4.2,0-6.3c0.6-0.2,1.2,0,1.8-0.1c0.5,0,0.5,0.3,0.5,0.6
		c0,1.6,0,3.2,0,4.8c0,0.6,0.2,0.8,0.8,0.7c0.4,0,0.9,0,1.3,0c0.2,0,0.5,0,0.7,0c0.7,0.1,0.9-0.2,0.9-0.9
		C122.4,168.4,122.4,166.7,122.4,164.9z"/>
	<path class="st14" d="M94.3,214.6c-0.9-0.4-1.4-1.2-1.9-1.9c-2.1-2.5-3.6-5.3-4.3-8.5c-0.7-3.3-0.8-6.6-0.4-9.9
		c0.4-2.9,1.2-5.7,2.2-8.4c1-2.6,2.6-5,4.2-7.3c2.1-3.1,4.1-6.2,5.8-9.5c2.1-4.1,3.5-8.4,4.6-12.9c0.9-4,1.5-8,2.8-11.9
		c1-3.1,3-5.2,6.1-6.2c0.8-0.3,1.5-0.6,2.4-0.6c-0.9,0.6-1.8,1.1-2.6,1.8c-3.1,2.5-5,5.6-5.6,9.6c-0.6,3.8-0.9,7.6-1.8,11.3
		c-0.8,3.2-2.1,6.3-3.4,9.3c-1.5,3.5-3.3,6.9-5,10.3c-1.7,3.5-3.3,7-4.4,10.7c-0.8,2.7-1.3,5.4-1.7,8.1c-0.2,1.4-0.3,2.8-0.4,4.2
		c0,3.7,0.4,7.3,2.5,10.5C93.7,213.7,94.2,214.1,94.3,214.6L94.3,214.6z"/>
	<path class="st15" d="M116.5,164.9c0,2.1,0,4.2,0,6.3c0,0.5-0.2,0.6-0.6,0.7c-3,1.1-5.6,2.8-7.7,5.2c-2.5,2.9-4,6.2-4.4,10
		c-0.3,3.2-0.2,6.4,0.9,9.5c0.8,2.3,2,4.3,3.7,6.1c2.1,2.3,4.6,3.9,7.6,4.8c0.4,0.1,0.4,0.4,0.4,0.8c0,2.1,0,4.1,0,6.2
		c-1.4,0.1-1.4,0.1-1.4-1.3c0-1.6,0-3.3,0-4.9c0-0.4-0.1-0.6-0.5-0.8c-7-2.6-11.1-7.5-12.1-15c-0.8-6.4,0.9-12,5.6-16.6
		c1.9-1.8,4-3.1,6.5-4c0.5-0.2,0.6-0.4,0.6-0.8c0-1.8,0-3.5,0-5.3c0-1,0-1.1,1.1-1C116.3,164.8,116.4,164.9,116.5,164.9z"/>
	<path class="st15" d="M130.1,193.2c1.5,0,1.5,0,1.5,1.4c0,1.5,0,3.1,0,4.6c0,0.5-0.1,0.8-0.5,1.1c-2,1.4-4.3,2-6.6,2.3
		c-0.2,0-0.5,0.1-0.7-0.1c2.2-0.3,4.2-1.1,6.1-2.4c0.3-0.2,0.3-0.5,0.3-0.8C130.1,197.3,130.1,195.2,130.1,193.2z"/>
	<path class="st16" d="M122.4,164.9c0,1.7,0,3.5,0,5.2c0,0.7-0.2,1-0.9,0.9c-0.2,0-0.5,0-0.7,0c0.2-0.2,0.1-0.5,0.1-0.8
		c0-1.5,0-3,0-4.4c0-0.6,0.2-0.9,0.8-0.8C122,165,122.2,164.9,122.4,164.9z"/>
	<path class="st17" d="M121,208.5c1.4,0,1.4,0,1.4,1.4c0,1.5,0,3.1,0,4.6c-1.4,0.1-1.4,0.1-1.4-1.3C121,211.6,121,210,121,208.5z"/>
	<path class="st17" d="M122.2,187.6c0,1.8,0,3.7,0,5.5c-1.4,0.1-1.4,0.1-1.4-1.3c0-1.1,0.1-2.3,0-3.4c0-0.7,0.2-0.9,0.9-0.8
		C121.9,187.6,122.1,187.6,122.2,187.6z"/>
	<path class="st14" d="M116.3,137.4C116.3,137.4,116.3,137.4,116.3,137.4C116.2,137.4,116.2,137.4,116.3,137.4
		C116.2,137.3,116.2,137.3,116.3,137.4C116.3,137.3,116.3,137.4,116.3,137.4z"/>
	<path class="st14" d="M94.4,214.6C94.4,214.7,94.4,214.7,94.4,214.6C94.4,214.7,94.4,214.7,94.4,214.6
		C94.3,214.6,94.4,214.6,94.4,214.6z"/>
</g>
</svg>
