<svg id="Capa_1" enable-background="new 0 0 510 510" height="512" viewBox="0 0 510 510" width="512" xmlns="http://www.w3.org/2000/svg"><g><path d="m139.391 357.075-15.622-4.439-106.107 106.106 21.213 21.214 58.958-48.958 47.149-57.149z" fill="#b0866b"/><path d="m425.147 8.831-170.147 170.148 5.001 25 27.091 7.091 132.908-112.239 41.25-21.25 48.75-68.75z" fill="#f9f0f1"/><path d="m297.427 221.404 42.425 42.427 170.148-170.147v-84.853z" fill="#e1def1"/><path d="m170.147 263.831-46.378 46.378 15.625 25.955 16.195 5.865 30.264-18.999 16.219-27.274-6.085-26.085z" fill="#f9f0f1"/><path d="m208.622 395.063 46.378-46.379-6.177-26.177-25.646-5.647-30.465 21.221-15.91 25.161 2.519 22.52z" fill="#e1def1"/><path d="m38.875 479.956 21.213 21.213 106.107-106.107-6.695-13.731-14.518-7.482z" fill="#9d6b5d"/><path d="m492.338 458.742-106.105-106.104-20.589.588-.625 20.625 44.981 64.98 61.125 41.125z" fill="#47568c"/><path d="m409.394 88.225-122.574 122.573 2.176 7.823 8.431 2.783 55.983-45.983 66.59-76.59z" fill="#e1def1"/><path d="m299.603 229.228 8.43 2.783 122.573-122.573-10.606-10.607-122.573 122.573z" fill="#bebbda"/><path d="m201.967 295.65-46.378 46.379-4.81 15.191 15.416-4.584 22.972-12.972 23.406-33.406 5.077-14.924z" fill="#e1def1"/><path d="m176.802 363.242 46.378-46.379 4.467-15.532-15.074 4.927-46.378 46.378-4.289 15.711z" fill="#bebbda"/><path d="m343.807 395.064 106.105 106.105 21.213-21.213-106.106-106.105-19.937-.063z" fill="#29376d"/><path d="m386.231 310.209-301.379-301.378h-84.852l223.786 243.786 120.021 100.021 32.082-12.084z" fill="#e1def1"/><path d="m0 8.831v84.853l301.379 301.379 34.927-14.926 7.501-27.499z" fill="#bebbda"/><path d="m354.412 342.03-253.806-253.805-10.606 10.606 145.502 155.502 108.305 98.305 15.562 4.437z" fill="#f9f0f1"/><path d="m90 98.831-10.606 10.607 253.805 253.806 15.233 4.768-4.625-15.375z" fill="#e1def1"/><path d="m439.264 299.603-21.213-21.213-74.246 74.246.606 20.606 20.607.607z" fill="#ffdc75"/><path d="m264.788 385.365h105v30h-105z" fill="#ffc649" transform="matrix(.707 -.707 .707 .707 -190.17 341.621)"/><path d="m91.949 278.39-21.213 21.213 74.246 74.246 22.582-2.582-1.369-18.631z" fill="#ffdc75"/><path d="m177.712 347.865h30v105h-30z" fill="#ffc649" transform="matrix(.707 -.707 .707 .707 -226.657 253.532)"/></g></svg>