<svg id="Flat" enable-background="new 0 0 64 64" height="512" viewBox="0 0 64 64" width="512" xmlns="http://www.w3.org/2000/svg"><g id="Color"><g><g><path d="m58 56h-52v-31c0-1.105.895-2 2-2h48c1.105 0 2 .895 2 2z" fill="#ade8f4"/><path d="m43 48c-2.068 0-4.062-.314-5.939-.897 8.642-2.602 14.939-10.614 14.939-20.103 0-1.37-.147-2.704-.399-4h-43.601c-1.105 0-2 .895-2 2v31h52v-8z" fill="#48cae4"/><path d="m39 53v3h-14v-3h-22v4c0 2.209 1.791 4 4 4h50c2.209 0 4-1.791 4-4v-4z" fill="#e9f1f2"/><path d="m60 57h-50c-2.209 0-4-1.791-4-4h-3v4c0 2.209 1.791 4 4 4h50c2.209 0 4-1.791 4-4v-.141c-.321.083-.653.141-1 .141z" fill="#d0d8da"/><g fill="#93999a"><circle cx="52" cy="57" r="1"/><circle cx="56" cy="57" r="1"/><circle cx="8" cy="57" r="1"/><circle cx="12" cy="57" r="1"/></g></g><g><g fill="#fdc741"><path d="m52.515 39.143-5-3c-.475-.285-1.088-.131-1.372.343s-.131 1.088.343 1.372l4.514 2.708v2.434c0 .552.447 1 1 1s1-.448 1-1v-3c0-.351-.185-.677-.485-.857z"/><path d="m16.485 36.143-5 3c-.3.18-.485.506-.485.857v3c0 .552.447 1 1 1s1-.448 1-1v-2.434l4.515-2.709c.474-.284.627-.898.343-1.372-.284-.473-.899-.628-1.373-.342z"/><path d="m44 39c-.553 0-1 .448-1 1v5c0 .552.447 1 1 1s1-.448 1-1v-5c0-.552-.447-1-1-1z"/><path d="m32 43c-.553 0-1 .448-1 1v4c0 .552.447 1 1 1s1-.448 1-1v-4c0-.552-.447-1-1-1z"/><path d="m20.245 39c-.553 0-1 .448-1 1v5c0 .552.447 1 1 1s1-.448 1-1v-5c0-.552-.447-1-1-1z"/></g><circle cx="52" cy="45" fill="#fffa48" r="2"/><circle cx="44" cy="47" fill="#fffa48" r="2"/><circle cx="12" cy="45" fill="#fffa48" r="2"/><circle cx="32" cy="50" fill="#fffa48" r="2"/><circle cx="20.245" cy="47" fill="#fffa48" r="2"/><circle cx="52" cy="45" fill="#fdc741" r="1"/><circle cx="44" cy="47" fill="#fdc741" r="1"/><circle cx="32" cy="50" fill="#fdc741" r="1"/><circle cx="20.245" cy="47" fill="#fdc741" r="1"/><circle cx="12" cy="45" fill="#fdc741" r="1"/><g><g><circle id="XMLID_188_" cx="32" cy="24" fill="#fffa48" r="21"/><path d="m51.53 31.71c-3.06 7.78-10.65 13.29-19.53 13.29-11.6 0-21-9.4-21-21 0-8.17 4.66-15.25 11.47-18.71-.95 2.39-1.47 4.99-1.47 7.71 0 11.6 9.4 21 21 21 3.43 0 6.67-.82 9.53-2.29z" fill="#fcea42"/><circle cx="32" cy="24" fill="#fdc741" r="17"/></g><path d="m42 34c-11.6 0-21-9.4-21-21 0-.688.034-1.368.099-2.039-3.726 3.119-6.099 7.8-6.099 13.039 0 9.389 7.611 17 17 17 5.821 0 10.954-2.929 14.018-7.39-1.301.253-2.643.39-4.018.39z" fill="#efad1b"/><g fill="#fffa48"><circle cx="19" cy="24" r="1"/><circle cx="45" cy="24" r="1"/><path d="m27 29c.076 0 .153-.009.23-.026.451-.108.77-.51.77-.974v-8c0-.553-.448-1-1-1s-1 .447-1 1v3.764l-2.105-4.211c-.208-.415-.67-.628-1.125-.526-.451.107-.77.509-.77.973v8c0 .553.448 1 1 1s1-.447 1-1v-3.764l2.105 4.211c.173.345.522.553.895.553z"/><path d="m35 21c.552 0 1-.447 1-1s-.448-1-1-1h-4c-.552 0-1 .447-1 1v8c0 .553.448 1 1 1s1-.447 1-1v-3h2c.552 0 1-.447 1-1s-.448-1-1-1h-2v-2z"/><path d="m43 19h-4c-.552 0-1 .447-1 1s.448 1 1 1h1v7c0 .553.448 1 1 1s1-.447 1-1v-7h1c.552 0 1-.447 1-1s-.448-1-1-1z"/><path d="m26.555 16.832 5.445-3.63 5.445 3.63c.171.113.364.168.554.168.323 0 .64-.156.833-.445.306-.46.182-1.08-.277-1.387l-6-4c-.336-.225-.773-.225-1.109 0l-6 4c-.459.307-.583.927-.277 1.387.305.459.925.582 1.386.277z"/><path d="m37.445 31.168-5.445 3.63-5.445-3.63c-.461-.307-1.081-.182-1.387.277-.306.46-.182 1.08.277 1.387l6 4c.168.112.362.168.555.168s.387-.056.555-.168l6-4c.459-.307.583-.927.277-1.387-.307-.459-.928-.584-1.387-.277z"/></g><g fill="#fcea42"><circle cx="19" cy="24" r="1"/><path d="m27.85 28.52c-.13.22-.35.39-.62.45-.08.02-.15.03-.23.03-.37 0-.72-.21-.89-.55l-2.11-4.21v3.76c0 .55-.45 1-1 1s-1-.45-1-1v-8c0-.13.02-.25.07-.36 1.15 3.44 3.16 6.49 5.78 8.88z"/><path d="m37.52 33.51-4.97 3.32c-.16.11-.36.17-.55.17s-.39-.06-.55-.17l-6-4c-.46-.3-.59-.92-.28-1.38.3-.46.92-.59 1.38-.28l5.45 3.63 3-2c.82.29 1.66.53 2.52.71z"/></g></g></g></g></g></svg>